<?xml version="1.0" standalone="no"?>
<!DOCTYPE svg PUBLIC "-//W3C//DTD SVG 20010904//EN"
 "http://www.w3.org/TR/2001/REC-SVG-20010904/DTD/svg10.dtd">
<svg version="1.0" xmlns="http://www.w3.org/2000/svg"
 width="513.000000pt" height="513.000000pt" viewBox="0 0 513.000000 513.000000"
 preserveAspectRatio="xMidYMid meet">
<metadata>
Created by potrace 1.14, written by Peter Selinger 2001-2017
</metadata>
<g transform="translate(0.000000,513.000000) scale(0.100000,-0.100000)"
fill="#000000" stroke="none">
<path d="M1005 5119 c-342 -51 -617 -298 -707 -639 l-23 -85 0 -1830 0 -1830
22 -85 c81 -306 317 -542 623 -623 l85 -22 1585 0 1585 0 83 23 c303 83 520
292 614 592 l23 75 0 1870 0 1870 -23 75 c-95 302 -318 514 -628 596 -65 17
-154 18 -1624 20 -855 1 -1582 -2 -1615 -7z m236 -566 c5 -13 9 -161 9 -329 0
-291 -1 -305 -20 -324 -23 -23 -33 -24 -61 -10 -18 10 -19 25 -19 340 0 321 0
329 21 343 27 19 58 10 70 -20z m1207 -585 c9 -9 12 -92 12 -312 l0 -301 43
-27 c23 -15 69 -51 102 -80 141 -123 281 -200 441 -240 127 -32 351 -32 478 0
162 41 316 125 439 241 l68 64 -4 -759 c-3 -739 -4 -762 -25 -856 -47 -205
-127 -388 -240 -547 -368 -517 -1029 -733 -1633 -531 -179 59 -332 147 -481
274 -94 80 -105 98 -83 132 24 37 51 29 123 -37 379 -347 950 -444 1423 -240
408 176 690 518 795 966 13 56 17 144 21 453 3 210 2 382 -2 382 -3 0 -27 -14
-51 -31 -72 -49 -207 -108 -312 -136 -87 -24 -115 -27 -277 -27 -164 0 -189 2
-277 26 -170 46 -315 125 -450 243 -111 98 -99 150 -96 -437 l3 -513 26 -55
c48 -100 132 -162 240 -176 30 -4 60 -11 67 -17 18 -15 14 -52 -8 -72 -19 -17
-26 -17 -87 -6 -179 33 -308 166 -334 344 -5 34 -9 290 -9 568 l0 506 -57 26
c-149 66 -301 93 -467 84 -239 -13 -423 -90 -611 -255 l-70 -61 -3 541 c-1
391 1 545 9 554 6 8 22 14 34 14 43 0 50 -23 55 -196 l5 -163 65 41 c155 99
325 148 535 155 170 6 291 -13 430 -66 l75 -29 0 262 c0 221 2 265 16 284 17
24 53 29 72 10z m-317 -1938 c12 -7 19 -21 19 -40 0 -19 -7 -33 -19 -40 -12
-6 -121 -10 -285 -10 l-266 0 -16 25 c-15 23 -15 27 0 50 l16 25 266 0 c164 0
273 -4 285 -10z m1463 -6 c21 -20 20 -43 -1 -66 -15 -17 -37 -18 -281 -18
-233 0 -268 2 -284 17 -22 20 -23 41 -1 65 15 17 37 18 284 18 230 0 270 -2
283 -16z"/>
<path d="M1691 3395 c-139 -31 -287 -97 -386 -173 l-50 -38 -3 -202 c-1 -111
0 -202 2 -202 2 0 37 20 77 45 86 53 196 97 317 127 71 18 116 22 242 22 167
0 252 -15 394 -68 38 -14 70 -26 72 -26 2 0 4 42 4 93 0 102 13 140 48 145 46
7 52 -10 52 -158 l0 -138 33 -21 c17 -11 75 -56 127 -100 155 -130 286 -197
458 -233 129 -27 346 -21 467 11 101 28 241 96 323 156 l62 47 0 74 c0 41 -3
74 -6 74 -3 0 -24 -13 -47 -29 -139 -95 -382 -171 -546 -171 -74 0 -91 10 -91
52 0 36 19 43 135 51 164 12 328 70 467 166 l83 57 3 68 3 68 -43 -30 c-61
-42 -161 -91 -243 -119 -283 -97 -573 -79 -840 52 -103 50 -151 84 -307 212
-79 65 -237 146 -343 174 -105 28 -367 36 -464 14z"/>
</g>
</svg>
