<?xml version="1.0" standalone="no"?>
<!DOCTYPE svg PUBLIC "-//W3C//DTD SVG 20010904//EN"
 "http://www.w3.org/TR/2001/REC-SVG-20010904/DTD/svg10.dtd">
<svg version="1.0" xmlns="http://www.w3.org/2000/svg"
 width="512.000000pt" height="512.000000pt" viewBox="0 0 512.000000 512.000000"
 preserveAspectRatio="xMidYMid meet">
<metadata>
Created by potrace 1.14, written by Peter Selinger 2001-2017
</metadata>
<g transform="translate(0.000000,512.000000) scale(0.100000,-0.100000)"
fill="#000000" stroke="none">
<path d="M2406 3769 c-531 -73 -952 -475 -1047 -999 -16 -87 -17 -341 -1 -415
6 -27 9 -51 7 -53 -3 -3 -1195 -362 -1202 -362 -1 0 -3 -36 -3 -80 0 -48 4
-80 10 -80 8 0 1179 348 1228 365 8 3 19 -10 29 -33 90 -218 244 -415 423
-541 146 -103 333 -182 500 -212 109 -20 336 -17 440 5 502 105 881 490 971
986 16 87 17 341 1 415 -6 27 -9 51 -7 53 3 3 1195 362 1202 362 1 0 3 36 3
80 0 48 -4 80 -10 80 -8 0 -1179 -348 -1228 -365 -8 -3 -19 10 -29 33 -90 218
-244 415 -423 541 -140 99 -316 175 -474 207 -93 18 -303 25 -390 13z m335
-164 c508 -89 879 -529 879 -1045 0 -586 -474 -1060 -1060 -1060 -586 0 -1060
474 -1060 1060 0 513 368 954 873 1045 98 18 267 18 368 0z"/>
</g>
</svg>
